<svg width="1020" height="1059" viewBox="0 0 1020 1059" fill="none" xmlns="http://www.w3.org/2000/svg">
<g clip-path="url(#clip0_4_187)">
<rect width="1020" height="1058.53" fill="#F77600"/>
<path d="M599.814 212.611C599.814 212.611 851.729 251.531 832.626 605.974C832.556 607.289 861.753 626.428 864.04 628.474C884.399 646.654 901.48 669.939 908.949 697.177C935.547 794.17 840.454 894.109 763.556 920.636C734.833 930.543 704.473 935.353 674.053 936.227C476.299 941.913 214.484 817.808 201.037 575.436C200.556 566.74 200.437 558.035 200.663 549.35C201.855 503.329 213.104 458.51 230.058 416.895C230.05 416.896 340.108 147.346 599.814 212.611Z" fill="#E2BA87"/>
<g style="mix-blend-mode:multiply" opacity="0.5">
<path d="M836.711 613.679C835.1 620.353 833.703 628.814 833.594 633.584C833.142 654.041 841.792 674.248 854.334 688.138C866.243 701.327 881.955 709.076 896.532 711.128C901.453 711.822 907.315 711.842 912.403 711.521C900.24 653.634 853.332 622.886 836.711 613.679Z" fill="#FCC3B8"/>
</g>
<g style="mix-blend-mode:multiply" opacity="0.5">
<path d="M494.028 759.744C535.228 745.686 555.212 697.004 538.663 651.01C522.115 605.016 475.3 579.126 434.1 593.183C392.9 607.241 372.916 655.923 389.465 701.917C406.014 747.911 452.828 773.801 494.028 759.744Z" fill="#FCC3B8"/>
</g>
<path opacity="0.3" d="M712.984 627.032C712.984 627.032 752.945 589.489 783.882 624.786Z" fill="#8B5E3C"/>
<path d="M339.974 797.922C227.763 874.294 101.264 727.655 125.808 634.703C141.464 575.412 205.535 563.887 248.884 611.703C274.467 639.923 296.809 677.135 311.234 713.497" fill="#E2BA87"/>
<path opacity="0.3" d="M226.516 666.085C243.939 680.75 259.264 703.676 276.166 715.531C270.65 693.15 263.267 669.417 250.253 650.148C237.037 630.576 215.453 615.649 195.706 619.284C171.234 623.791 154.458 655.979 155.059 683.395C154.698 666.989 184.766 652.498 196.922 652.698C220.029 687.386 235.877 759.072 235.877 759.072C246.635 716.285 236.487 684.711 226.516 666.085Z" fill="#8B5E3C"/>
<path d="M734.804 731.647C750.836 730.138 765.53 723.325 776.856 706.952C782.783 698.392 789.245 693.283 799.981 698.642C825.685 711.476 836.254 750.205 833.225 777.429C829.898 807.303 811.779 833.305 789.419 851.574C729.25 900.733 677.949 897.726 607.747 879.802C552.49 865.7 476.05 832.929 485.032 759.068C496.156 667.618 597.831 698.23 655.185 715.401C679.54 722.701 708.916 734.082 734.804 731.647Z" fill="white"/>
<mask id="mask0_4_187" style="mask-type:alpha" maskUnits="userSpaceOnUse" x="484" y="696" width="350" height="196">
<path d="M734.804 731.647C750.836 730.138 765.53 723.325 776.856 706.952C782.783 698.392 789.245 693.283 799.981 698.642C825.685 711.476 836.254 750.205 833.225 777.429C829.898 807.303 811.779 833.305 789.419 851.574C729.25 900.732 677.949 897.726 607.747 879.802C552.49 865.7 476.05 832.928 485.032 759.068C496.156 667.618 597.831 698.23 655.185 715.401C679.54 722.701 708.916 734.082 734.804 731.647Z" fill="white"/>
</mask>
<g mask="url(#mask0_4_187)">
<path fill-rule="evenodd" clip-rule="evenodd" d="M529.208 857.236L574.149 663.124L584.187 665.997L539.245 860.109L529.208 857.236ZM677.388 899.741L700.009 699.107L710.274 700.654L687.652 901.288L677.388 899.741ZM812.099 835.24L767.958 695.69L777.743 692.32L821.884 831.869L812.099 835.24Z" fill="#D1D3D4"/>
</g>
<path d="M558.135 555.893C576.584 555.583 595.054 561.749 611.393 570.957C621.192 561.668 625.903 545.796 622.221 529.216C617.056 505.948 597.521 490.346 578.589 494.373C559.658 498.4 548.507 520.531 553.679 543.799C554.642 548.166 556.252 552.152 558.135 555.893Z" fill="#377531"/>
<path d="M799.946 558.73C802.666 553.154 804.263 546.343 804.108 538.904C803.733 520.419 793.061 505.506 780.271 505.608C767.481 505.702 757.419 520.771 757.795 539.264C758.002 549.432 761.392 558.411 766.463 564.513C777.139 560.672 788.477 558.838 799.946 558.73Z" fill="#377531"/>
<path d="M627.373 419.293C598.791 414.981 568.163 424.888 547.602 444.983C540.973 451.462 539.118 462.953 546.045 470.269C552.444 477.037 564.085 479.108 571.18 472.163C573.307 470.081 575.528 468.109 577.883 466.28C578.615 465.711 580.649 464.7 581.29 463.859C581.646 463.641 581.995 463.423 582.359 463.211C584.605 461.899 586.914 460.699 589.277 459.61C590.632 458.988 591.999 458.411 593.383 457.863C593.82 457.693 594.258 457.53 594.703 457.366C595.918 457.17 597.313 456.561 598.421 456.28C599.867 455.913 601.316 455.592 602.784 455.308C605.343 454.814 607.928 454.442 610.523 454.2C610.888 454.166 611.245 454.14 611.61 454.113C613.01 454.12 614.408 454.095 615.812 454.148C618.798 454.263 621.769 454.572 624.728 455.013C633.964 456.41 643.542 447.974 643.818 438.71C644.106 428.512 637.267 420.789 627.373 419.293Z" fill="#1D1B07"/>
<path d="M819.263 449.747C808.884 436.498 793.633 427.804 777.181 425.28C772.74 424.6 767.557 426.178 764.094 428.927C760.68 431.634 757.816 436.406 757.518 440.861C757.211 445.486 758.195 450.449 761.309 454.086C764.465 457.774 768.426 460.116 773.247 460.861C774.037 460.982 774.804 461.188 775.59 461.347C777.909 462.089 780.151 463.006 782.338 464.081C784.825 465.643 787.155 467.417 789.334 469.402C790.043 470.191 790.795 470.946 791.454 471.785C794.299 475.411 798.862 477.994 803.392 478.56C807.729 479.102 813.128 477.808 816.479 474.906C819.951 471.901 822.736 467.737 823.054 462.972C823.373 458.223 822.271 453.584 819.263 449.747Z" fill="#1D1B07"/>
<path d="M193.898 561.891C193.873 570.564 194.198 579.249 194.891 587.917C269.196 598.481 306.066 674.72 315.213 711.519C315.213 711.519 337.266 712.288 342.352 708.086C369.232 693.649 416.282 635.862 389.448 520.205C376.544 467.649 383.326 425.426 477.003 357.848C570.679 290.269 723.217 327.847 754.887 351.678C780.223 370.743 792.319 377.897 795.201 379.092C725.362 234.302 590.521 216.845 590.521 216.845C325.774 157.553 220.567 429.041 220.575 429.039C204.371 470.952 194.024 515.935 193.898 561.891Z" fill="#0E0701"/>
<path d="M667.23 325.316C636.604 290.768 561.081 243.125 503.997 328.94C432.643 436.209 488.121 480.27 466.935 571.327C445.75 662.384 395.936 693.686 409.018 753.786C422.1 813.887 513.889 913.759 476.535 978.754C476.535 978.754 412.737 971.683 337.009 957.103C309.178 951.745 308.613 924.953 305.098 914.299L301.874 909.974C294.751 908.495 299.266 949.396 292.071 947.79C219.487 931.586 145.282 908.874 110.614 879.306C117.383 864.058 124.022 821.26 96.4207 772.05C61.9188 710.537 76.2203 657.378 104.524 620.892C132.829 584.406 125.932 539.266 112.984 484.824C100.035 430.382 109.784 349.015 165.382 315.698C220.981 282.381 246.942 228.962 291.014 201.563C335.086 174.163 498.842 110.136 607.763 194.531C617.964 187.384 656.732 176.836 706.87 192.33C769.543 211.698 826.358 306.142 835.481 369.705C850.601 475.054 882.559 511.145 891.199 547.754C896.978 572.241 902.047 595.638 880.679 637.631C860.824 620.143 847.044 612.9 835.186 604.671C836.626 583.25 837.286 528.758 828.411 482.152C817.317 423.894 772.091 278.638 692.973 303.985C684.619 307.001 680.937 312.933 667.23 325.316Z" fill="#030200"/>
<path d="M874.137 896.325C879.276 883.378 875.508 858.236 872.981 847.283C850.249 872.699 820.292 894.061 808.155 901.565C826.104 904.186 859.622 899.164 874.137 896.325Z" fill="#030200"/>
<path d="M422.513 342.06C465.819 265.61 561 250.915 603.178 253.124C375.285 235.537 357.465 386.91 358.843 445.384C359.945 492.162 366.406 518.817 351.482 545.57C296.662 611.896 318.819 672.11 329.731 695.143C318.86 646.317 337.448 610.047 379.088 561.942C420.728 513.837 368.381 437.623 422.513 342.06Z" fill="#AA5A10" fill-opacity="0.5"/>
<path d="M368.532 856.583C339.909 830.042 332.309 804.545 332.087 795.114C423.32 838.381 407.361 909.192 387.977 939.189C393.421 922.712 397.155 883.123 368.532 856.583Z" fill="#AA5A10" fill-opacity="0.5"/>
<path d="M225.171 548.374C241.383 510.27 236.833 465.706 232.532 448.188C233.865 504.775 198.366 565.954 159.247 638.537C127.951 696.603 175.783 762.727 203.611 788.53C208.729 758.221 182.934 736.147 179.701 681.489C176.469 626.831 204.907 596.004 225.171 548.374Z" fill="#AA5A10" fill-opacity="0.5"/>
<path d="M870.785 635.951C880.161 604.792 871.945 561.38 866.664 543.568C867.393 574.503 862.442 611.917 859.875 626.757L870.785 635.951Z" fill="#AA5A10" fill-opacity="0.5"/>
<ellipse cx="886.537" cy="138.505" rx="118.991" ry="123.486" fill="#2FA0B0"/>
<path fill-rule="evenodd" clip-rule="evenodd" d="M1005.43 143.511C1005.5 141.85 1005.53 140.181 1005.53 138.505C1005.53 133.612 1005.25 128.786 1004.72 124.042H845.533C840.353 124.042 836.153 128.4 836.153 133.777C836.153 139.153 840.353 143.511 845.533 143.511H1005.43ZM993.598 192.46H949.313H905.029C899.848 192.46 895.649 196.818 895.649 202.195C895.649 207.571 899.848 211.929 905.029 211.929H982.218C986.561 205.844 990.378 199.33 993.598 192.46ZM814.704 236.96H895.917C901.097 236.96 905.297 232.602 905.297 227.225C905.297 221.849 901.097 217.491 895.917 217.491H845.492H795.067C800.876 224.727 807.466 231.263 814.704 236.96ZM776.141 184.673H871.797C876.977 184.673 881.177 180.315 881.177 174.939C881.177 169.562 876.977 165.204 871.797 165.204H770.334C771.76 171.915 773.711 178.421 776.141 184.673ZM777.26 89.5552C774.662 95.795 772.545 102.301 770.958 109.024H909.853C915.033 109.024 919.232 104.666 919.232 99.2895C919.232 93.9134 915.033 89.5552 909.853 89.5552H777.26Z" fill="#9FB5C1"/>
<path fill-rule="evenodd" clip-rule="evenodd" d="M770.958 109.024H909.853C915.033 109.024 919.232 104.666 919.232 99.2895C919.232 93.9134 915.033 89.5552 909.853 89.5552H777.26C774.662 95.795 772.545 102.301 770.958 109.024Z" fill="#9FB5C1"/>
<path fill-rule="evenodd" clip-rule="evenodd" d="M776.141 184.673H871.797C876.977 184.673 881.177 180.315 881.177 174.939C881.177 169.562 876.977 165.204 871.797 165.204H770.334C771.76 171.915 773.711 178.421 776.141 184.673Z" fill="#9FB5C1"/>
<path fill-rule="evenodd" clip-rule="evenodd" d="M814.704 236.96H895.917C901.097 236.96 905.297 232.602 905.297 227.225C905.297 221.849 901.097 217.491 895.917 217.491H845.492H795.067C800.876 224.727 807.466 231.263 814.704 236.96Z" fill="#9FB5C1"/>
<path fill-rule="evenodd" clip-rule="evenodd" d="M845.533 124.042C840.353 124.042 836.153 128.4 836.153 133.777C836.153 139.153 840.353 143.511 845.533 143.511H1005.43C1005.5 141.85 1005.53 140.181 1005.53 138.505C1005.53 133.612 1005.25 128.786 1004.72 124.042H845.533Z" fill="#9FB5C1"/>
<path fill-rule="evenodd" clip-rule="evenodd" d="M905.029 192.46C899.848 192.46 895.649 196.818 895.649 202.195C895.649 207.571 899.848 211.929 905.029 211.929H982.218C986.561 205.844 990.378 199.33 993.598 192.46H949.313H905.029Z" fill="#9FB5C1"/>
<path d="M953.812 125.506L921.884 110.712V174.437L963.72 201.748L953.812 125.506Z" fill="#FB5A21"/>
<path d="M821.519 125.506L850.357 110.712V174.437L812.569 201.748L821.519 125.506Z" fill="#FB5A21"/>
<path d="M886.795 201.814V188.209V174.604V29.481C886.795 29.481 866.405 38.4918 852.539 81.2936C844.563 105.917 840.944 128.907 838.913 153.062C837.607 168.584 838.334 184.808 839.387 201.814H848.869V210.884H859.983V219.955H886.795V210.884V201.814Z" fill="#DCDFD9"/>
<path d="M886.795 201.814V188.209V174.604V29.481C886.795 29.481 907.752 38.4918 922.003 81.2936C930.201 105.917 933.92 128.907 936.008 153.062C937.35 168.584 936.603 184.808 935.52 201.814H925.775V210.884H914.353V219.955H886.795V210.884V201.814Z" fill="#F9F1F9"/>
<path d="M876.033 233.96C883.202 233.96 888.165 233.96 900.298 233.96C913.651 233.96 903.607 273.883 900.298 273.883C896.989 273.883 888.165 289.982 888.165 289.982C888.165 289.982 880.996 273.883 876.033 273.883C871.069 273.883 863.645 233.96 876.033 233.96Z" fill="#E36018"/>
<path d="M878.138 233.96C884.061 233.96 888.161 233.96 898.184 233.96C909.214 233.96 900.917 263.903 898.184 263.903C895.45 263.903 888.161 275.976 888.161 275.976C888.161 275.976 882.239 263.903 878.138 263.903C874.038 263.903 867.905 233.96 878.138 233.96Z" fill="#FFAE44"/>
<path d="M881.299 233.96C885.351 233.96 888.157 233.96 895.014 233.96C902.562 233.96 896.885 253.922 895.014 253.922C893.144 253.922 888.157 261.971 888.157 261.971C888.157 261.971 884.105 253.922 881.299 253.922C878.494 253.922 874.297 233.96 881.299 233.96Z" fill="#FCE25E"/>
<path d="M865.202 219.955H909.738L907.039 236.761H869.251L865.202 219.955Z" fill="#5B6575"/>
<path d="M903.624 77.0993C903.624 86.8684 896.039 94.4659 887.073 94.4659C878.106 94.4659 870.522 86.8684 870.522 77.0993C870.522 67.3302 878.106 59.7327 887.073 59.7327C896.039 59.7327 903.624 67.3302 903.624 77.0993Z" fill="#00D5CC" stroke="#5B6575" stroke-width="10.0841"/>
<path d="M877.09 127.115L886.537 112.113L895.984 127.115L886.537 222.756L877.09 127.115Z" fill="#FB5A21"/>
</g>
<defs>
<clipPath id="clip0_4_187">
<rect width="1020" height="1058.53" fill="white"/>
</clipPath>
</defs>
</svg>
